<svg width="238" height="85" viewBox="0 0 238 85" fill="none" xmlns="http://www.w3.org/2000/svg">
<path d="M119.68 54V36.03H112.6V33.99H128.89V36.03H121.84V54H119.68ZM144.37 54.3C141.89 54.3 139.96 53.57 138.58 52.11C137.22 50.65 136.54 48.56 136.54 45.84V33.99H138.7V45.96C138.7 48.1 139.18 49.69 140.14 50.73C141.1 51.75 142.51 52.26 144.37 52.26C146.23 52.26 147.65 51.75 148.63 50.73C149.61 49.69 150.1 48.1 150.1 45.96V33.99H152.2V45.84C152.2 48.56 151.51 50.65 150.13 52.11C148.77 53.57 146.85 54.3 144.37 54.3Z" fill="white"/>
<path d="M174.833 54V33.99H187.673V36.78H178.133V42.75H186.473V45.57H178.133V54H174.833ZM192.239 54L200.039 33.99H203.549L211.139 54H207.659L205.679 48.57H197.519L195.539 54H192.239ZM198.479 45.87H204.719L201.599 37.32L198.479 45.87ZM218.52 54V33.99H221.7L232.32 48.69V33.99H235.47V54H232.5L221.67 39.15V54H218.52Z" fill="#2271B7"/>
<path d="M71.3033 55.2957V67.0667C71.3001 68.1893 70.8527 69.265 70.0589 70.0589C69.2651 70.8527 68.1893 71.3001 67.0667 71.3032H5.53989C4.41725 71.3001 3.3415 70.8527 2.54768 70.0589C1.75385 69.265 1.30647 68.1893 1.3033 67.0667V55.2957C1.30329 54.171 1.74926 53.0921 2.54343 52.2957C3.3376 51.4993 4.41517 51.0502 5.53989 51.0471H34.6544V25.1942H34.7868C34.0292 24.7799 33.4312 24.1251 33.087 23.3332C32.7428 22.5413 32.672 21.6574 32.8859 20.8208C33.0997 19.9842 33.586 19.2426 34.268 18.7131C34.95 18.1835 35.7889 17.896 36.6523 17.896C37.5158 17.896 38.3547 18.1835 39.0367 18.7131C39.7187 19.2426 40.2049 19.9842 40.4188 20.8208C40.6326 21.6574 40.5619 22.5413 40.2177 23.3332C39.8735 24.1251 39.2754 24.7799 38.5179 25.1942H38.6382V51.0471H67.0667C68.1914 51.0502 69.269 51.4993 70.0632 52.2957C70.8573 53.0921 71.3033 54.171 71.3033 55.2957V55.2957Z" fill="#2271B7"/>
<path d="M65.4781 21.7881C65.4796 25.6312 64.709 29.4354 63.2121 32.975C61.7152 36.5145 59.5226 39.7173 56.7642 42.3933L53.8034 39.4446C56.1361 37.1503 57.9913 34.4168 59.2621 31.4019C60.5328 28.3869 61.194 25.1502 61.2074 21.8784C61.2209 18.6066 60.5863 15.3645 59.3403 12.3392C58.0943 9.31393 56.2616 6.56533 53.9479 4.25198L56.9327 1.30322C59.6455 3.97956 61.7983 7.16926 63.2655 10.6863C64.7326 14.2033 65.4848 17.9773 65.4781 21.7881V21.7881Z" fill="#2271B7"/>
<path d="M11.6179 21.788C11.6103 28.3479 14.2078 34.6424 18.8393 39.288L16.1193 42.0201C10.7849 36.5999 7.80325 29.2948 7.82127 21.69C7.8393 14.0852 10.8556 6.79425 16.2155 1.39941L18.9477 4.13153C16.6144 6.44021 14.7645 9.19063 13.506 12.2222C12.2475 15.2537 11.6057 18.5056 11.6179 21.788V21.788Z" fill="#2271B7"/>
<path d="M20.043 21.7881C20.0374 23.957 20.4598 26.1057 21.2859 28.1111C22.112 30.1165 23.3257 31.9392 24.8573 33.4749L22.2696 36.0626C20.3387 34.172 18.8028 31.9164 17.7513 29.427C16.6998 26.9376 16.1537 24.2639 16.1448 21.5616C16.1358 18.8592 16.6642 16.182 17.6991 13.6856C18.7341 11.1893 20.255 8.92358 22.1734 7.02026L25.0499 9.89681C23.4616 11.4426 22.1999 13.2917 21.3399 15.3344C20.4798 17.3771 20.0388 19.5718 20.043 21.7881V21.7881Z" fill="#2271B7"/>
<path d="M56.9687 21.4993C56.9723 24.236 56.423 26.9451 55.3537 29.4642C54.2844 31.9833 52.7173 34.2604 50.7462 36.1589L48.2548 33.6675C49.8161 32.1433 51.0619 30.3265 51.9208 28.3208C52.7797 26.315 53.2351 24.1597 53.2608 21.9779C53.2865 19.7962 52.8821 17.6307 52.0706 15.6053C51.2592 13.5799 50.0566 11.7342 48.5316 10.1737L51.2758 7.41748C54.9249 11.1974 56.9656 16.2454 56.9687 21.4993Z" fill="#2271B7"/>
<path d="M28.3958 21.788C28.3922 23.8845 29.1885 25.9033 30.6224 27.4328L27.806 30.2852C25.5651 27.9486 24.3412 24.8194 24.4021 21.5825C24.463 18.3455 25.8038 15.2646 28.131 13.0139L30.9594 15.8423C30.1519 16.6082 29.5082 17.5301 29.0676 18.5521C28.6269 19.5741 28.3984 20.675 28.3958 21.788Z" fill="#2271B7"/>
<path d="M48.8926 21.7883C48.8917 23.3976 48.5721 24.9909 47.9524 26.4761C47.3327 27.9614 46.4251 29.3092 45.2819 30.442L42.4655 27.6256C43.2562 26.8341 43.8781 25.8904 44.2935 24.8516C44.7089 23.8128 44.9092 22.7005 44.8822 21.582C44.8552 20.4635 44.6014 19.3622 44.1364 18.3446C43.6714 17.3271 43.0046 16.4145 42.1766 15.6621L44.993 12.8457C46.2236 13.9875 47.2052 15.3712 47.8762 16.9099C48.5473 18.4487 48.8933 20.1095 48.8926 21.7883Z" fill="#2271B7"/>
<path d="M11.5578 65.3576C14.0039 65.3576 15.9869 63.3746 15.9869 60.9284C15.9869 58.4823 14.0039 56.4993 11.5578 56.4993C9.11163 56.4993 7.12863 58.4823 7.12863 60.9284C7.12863 63.3746 9.11163 65.3576 11.5578 65.3576Z" fill="white"/>
<path d="M32.4398 63.2033C33.6296 63.2033 34.5942 62.2388 34.5942 61.0489C34.5942 59.8591 33.6296 58.8945 32.4398 58.8945C31.2499 58.8945 30.2854 59.8591 30.2854 61.0489C30.2854 62.2388 31.2499 63.2033 32.4398 63.2033Z" fill="white"/>
<path d="M42.5981 63.2033C43.7879 63.2033 44.7525 62.2388 44.7525 61.0489C44.7525 59.8591 43.7879 58.8945 42.5981 58.8945C41.4082 58.8945 40.4437 59.8591 40.4437 61.0489C40.4437 62.2388 41.4082 63.2033 42.5981 63.2033Z" fill="white"/>
<path d="M53.0451 63.2033C54.2349 63.2033 55.1995 62.2388 55.1995 61.0489C55.1995 59.8591 54.2349 58.8945 53.0451 58.8945C51.8552 58.8945 50.8907 59.8591 50.8907 61.0489C50.8907 62.2388 51.8552 63.2033 53.0451 63.2033Z" fill="white"/>
<path d="M63.2996 63.2033C64.4894 63.2033 65.454 62.2388 65.454 61.0489C65.454 59.8591 64.4894 58.8945 63.2996 58.8945C62.1098 58.8945 61.1452 59.8591 61.1452 61.0489C61.1452 62.2388 62.1098 63.2033 63.2996 63.2033Z" fill="white"/>
</svg>
