<svg width="260" height="88" viewBox="0 0 260 88" fill="none" xmlns="http://www.w3.org/2000/svg">
<path d="M117.827 55V37.03H110.747V34.99H127.037V37.03H119.987V55H117.827ZM142.517 55.3C140.037 55.3 138.107 54.57 136.727 53.11C135.367 51.65 134.687 49.56 134.687 46.84V34.99H136.847V46.96C136.847 49.1 137.327 50.69 138.287 51.73C139.247 52.75 140.657 53.26 142.517 53.26C144.377 53.26 145.797 52.75 146.777 51.73C147.757 50.69 148.247 49.1 148.247 46.96V34.99H150.347V46.84C150.347 49.56 149.657 51.65 148.277 53.11C146.917 54.57 144.997 55.3 142.517 55.3Z" fill="white"/>
<path d="M177.72 55V37.78H171.27V34.99H187.5V37.78H181.02V55H177.72ZM195.029 55V34.99H208.139V37.78H198.359V43.57H206.909V46.39H198.329V52.21H208.139V55H195.029ZM225.687 55.3C222.547 55.3 220.177 54.45 218.577 52.75C216.977 51.05 216.177 48.46 216.177 44.98C216.177 38.1 219.347 34.66 225.687 34.66C226.747 34.66 227.797 34.79 228.837 35.05C229.877 35.31 230.897 35.67 231.897 36.13V39.1C230.917 38.52 229.937 38.1 228.957 37.84C227.997 37.56 227.047 37.42 226.107 37.42C223.907 37.42 222.267 38.01 221.187 39.19C220.127 40.37 219.597 42.31 219.597 45.01C219.597 47.69 220.127 49.61 221.187 50.77C222.267 51.93 223.937 52.51 226.197 52.51C227.097 52.51 228.027 52.39 228.987 52.15C229.947 51.89 230.917 51.47 231.897 50.89V53.86C230.977 54.3 229.977 54.65 228.897 54.91C227.817 55.17 226.747 55.3 225.687 55.3ZM240.357 55V34.99H243.657V43.6H252.897V34.99H256.227V55H252.897V46.48H243.657V55H240.357Z" fill="#2271B7"/>
<path d="M45.48 37.6818L34.875 51.3789L40.23 51.2915V67.5678H8.17496C6.77838 67.3468 5.49089 66.6984 4.49996 65.7172C3.01057 64.4033 1.91677 62.721 1.33551 60.8499C0.754255 58.9789 0.707403 56.9896 1.19996 55.0946C1.61208 53.8083 2.33168 52.6349 3.29996 51.6704C3.94827 51.0341 4.68549 50.4896 5.48997 50.0529C5.78997 49.8926 8.48996 48.9746 8.48996 48.9601C8.48996 48.9455 9.59996 39.1098 20.49 40.7272C20.4 39.5854 20.4352 38.4375 20.595 37.3029C20.8631 34.654 21.6578 32.0807 22.935 29.7258C24.3853 27.1305 26.4783 24.927 29.025 23.3144C33.2094 20.4903 38.3302 19.2895 43.38 19.9484C47.1853 20.3985 50.8256 21.7221 54 23.8098C56.7547 25.7636 58.8443 28.4736 60 31.5909C61.2657 30.9875 62.5863 30.4997 63.945 30.1338C66.9914 29.217 70.212 28.9829 73.365 29.4489C76.3612 29.9521 79.1754 31.191 81.54 33.0481C83.4811 34.4057 85.1242 36.1255 86.3733 38.107C87.6224 40.0885 88.4525 42.292 88.815 44.5886C89.2385 47.492 89.1929 50.4418 88.68 53.3315C88.1447 56.5147 86.7468 59.5021 84.63 61.9869C83.3839 63.3887 81.903 64.5759 80.25 65.4986C78.3739 66.7291 76.2355 67.5311 73.995 67.8446H51.09V51.1021H56.25L45.48 37.6818Z" fill="#2271B7"/>
</svg>
