<svg width="417" height="120" viewBox="0 0 417 120" fill="none" xmlns="http://www.w3.org/2000/svg">
<path d="M111.14 67.12C110.447 70.3742 109.188 73.4814 107.42 76.3L111.42 80.3L102.7 89.02L98.7001 85.02C95.7872 86.9174 92.5552 88.2726 89.1601 89.02V94.88H76.0001V88.88C72.9048 88.0985 69.9635 86.8002 67.3001 85.04V85.04L63.1201 89.22L56.7601 82.86L60.4601 82.76C60.7068 82.8651 60.972 82.9195 61.2401 82.92H77.0001C77.5179 82.9126 78.0125 82.7047 78.3801 82.34C78.7364 81.9995 78.9447 81.5326 78.9601 81.04C78.9601 80.5096 78.7494 80.0009 78.3743 79.6258C77.9993 79.2507 77.4906 79.04 76.9601 79.04H61.2001C61.0409 79.0181 60.8794 79.0181 60.7201 79.04C58.7009 76.5888 57.1056 73.8172 56.0001 70.84H66.4201C66.9379 70.8326 67.4325 70.6247 67.8001 70.26C68.1564 69.9195 68.3647 69.4526 68.3801 68.96C68.3801 68.4296 68.1694 67.9209 67.7943 67.5458C67.4193 67.1707 66.9106 66.96 66.3801 66.96H55.4201H54.9401C54.6777 65.8954 54.4972 64.8122 54.4001 63.72H48.8601V59.12H61.6601C62.1848 59.1178 62.6876 58.9095 63.0601 58.54C63.3202 58.2519 63.4908 57.8943 63.5511 57.5108C63.6115 57.1274 63.5589 56.7347 63.3999 56.3806C63.2409 56.0265 62.9823 55.7263 62.6556 55.5167C62.3289 55.3071 61.9483 55.197 61.5601 55.2H54.9601C55.5419 52.2791 56.6028 49.4746 58.1001 46.9C58.1001 46.9 58.2601 46.9 58.2801 47.02C58.4545 47.1028 58.6479 47.1373 58.8401 47.12H70.2601C70.5247 47.1189 70.7865 47.0653 71.0302 46.9623C71.274 46.8593 71.4949 46.709 71.6801 46.52C72.0354 46.1624 72.2426 45.6838 72.2601 45.18C72.2343 44.6371 71.9989 44.1254 71.6036 43.7524C71.2082 43.3794 70.6836 43.1742 70.1401 43.18L61.6801 43.02L61.2001 42.6C61.9234 41.6593 62.7336 40.7888 63.6201 40L55.6201 39.76L63.0201 32.24L67.7601 36.92C70.3912 35.2573 73.2757 34.0346 76.3001 33.3V33.3V26.52H88.9601V32.98C92.2925 33.6841 95.4746 34.9704 98.3601 36.78V36.78L102.62 32.52L111.62 41.5L107.38 45.8C109.012 48.3705 110.221 51.1863 110.96 54.14H117.26V67.02H111.14V67.12Z" fill="#2271B7"/>
<path d="M83.0601 73.1001C89.6875 73.1001 95.0601 67.7275 95.0601 61.1001C95.0601 54.4727 89.6875 49.1001 83.0601 49.1001C76.4327 49.1001 71.0601 54.4727 71.0601 61.1001C71.0601 67.7275 76.4327 73.1001 83.0601 73.1001Z" fill="white"/>
<path d="M19.7601 41.2399C18.1493 41.2439 16.5736 40.7699 15.2323 39.8778C13.8911 38.9858 12.8446 37.7159 12.2255 36.2289C11.6063 34.7418 11.4422 33.1045 11.7541 31.5242C12.0659 29.9439 12.8396 28.4916 13.9772 27.3512C15.1148 26.2108 16.5651 25.4336 18.1447 25.1178C19.7242 24.8021 21.3619 24.9622 22.8505 25.5777C24.339 26.1932 25.6115 27.2365 26.5068 28.5755C27.4022 29.9146 27.8801 31.4891 27.8801 33.0999C27.8801 35.2553 27.0252 37.3228 25.503 38.8487C23.9808 40.3747 21.9155 41.2347 19.7601 41.2399V41.2399ZM19.7601 27.2399C18.6042 27.236 17.4731 27.5751 16.5101 28.2144C15.5471 28.8537 14.7955 29.7644 14.3504 30.8312C13.9053 31.8979 13.7868 33.0728 14.0099 34.207C14.2329 35.3411 14.7876 36.3836 15.6035 37.2023C16.4194 38.0211 17.46 38.5793 18.5934 38.8062C19.7268 39.0332 20.902 38.9187 21.9703 38.4773C23.0386 38.0359 23.9519 37.2874 24.5945 36.3265C25.2371 35.3657 25.5801 34.2358 25.5801 33.0799C25.5748 31.538 24.9599 30.0607 23.8696 28.9704C22.7793 27.8801 21.302 27.2652 19.7601 27.2599V27.2399Z" fill="#2271B7"/>
<path d="M26.42 62.1198C24.8084 62.1238 23.2318 61.6492 21.8902 60.7563C20.5485 59.8634 19.5021 58.5923 18.8835 57.1041C18.2649 55.6159 18.102 53.9776 18.4155 52.3967C18.7289 50.8158 19.5046 49.3636 20.6442 48.224C21.7838 47.0844 23.236 46.3087 24.8169 45.9953C26.3978 45.6818 28.0361 45.8447 29.5243 46.4633C31.0125 47.0819 32.2836 48.1283 33.1765 49.47C34.0694 50.8116 34.544 52.3882 34.54 53.9998C34.5347 56.1518 33.6775 58.2141 32.1559 59.7357C30.6342 61.2574 28.572 62.1146 26.42 62.1198V62.1198ZM26.42 48.1198C25.2658 48.1159 24.1364 48.4541 23.1743 49.0916C22.2121 49.7292 21.4605 50.6375 21.0143 51.7019C20.5681 52.7664 20.4472 53.9392 20.6671 55.0722C20.8869 56.2053 21.4376 57.2478 22.2495 58.0681C23.0615 58.8884 24.0983 59.4497 25.229 59.6812C26.3597 59.9126 27.5337 59.8038 28.6027 59.3685C29.6716 58.9333 30.5876 58.191 31.235 57.2354C31.8824 56.2799 32.2321 55.154 32.24 53.9998C32.2427 53.2339 32.0941 52.4749 31.8028 51.7665C31.5114 51.058 31.0832 50.4141 30.5425 49.8715C30.0018 49.329 29.3593 48.8985 28.6519 48.6048C27.9444 48.311 27.186 48.1598 26.42 48.1598V48.1198Z" fill="#2271B7"/>
<path d="M10.88 79.5998C9.26922 79.5998 7.69464 79.1219 6.3556 78.2266C5.01655 77.3313 3.97324 76.0588 3.35774 74.5702C2.74223 73.0817 2.58221 71.444 2.89791 69.8644C3.21362 68.2849 3.99087 66.8345 5.13127 65.6969C6.27167 64.5593 7.72395 63.7856 9.30427 63.4738C10.8846 63.162 12.5219 63.326 14.0089 63.9452C15.496 64.5644 16.7659 65.6108 17.6579 66.9521C18.5499 68.2933 19.024 69.869 19.02 71.4798C19.0147 73.6352 18.1548 75.7005 16.6288 77.2228C15.1028 78.745 13.0354 79.5998 10.88 79.5998V79.5998ZM10.88 65.5998C9.72497 65.5998 8.59586 65.9423 7.63548 66.584C6.6751 67.2258 5.92657 68.1378 5.48455 69.205C5.04254 70.2721 4.92689 71.4463 5.15222 72.5792C5.37756 73.712 5.93377 74.7526 6.75051 75.5693C7.56725 76.3861 8.60783 76.9423 9.74068 77.1676C10.8735 77.393 12.0478 77.2773 13.1149 76.8353C14.182 76.3933 15.0941 75.6447 15.7358 74.6844C16.3775 73.724 16.72 72.5949 16.72 71.4398C16.7094 69.8979 16.0895 68.4227 14.9954 67.3362C13.9014 66.2496 12.422 65.6398 10.88 65.6398V65.5998Z" fill="#2271B7"/>
<path d="M26.2799 94.3601C24.67 94.3601 23.0962 93.8827 21.7576 92.9882C20.419 92.0938 19.3757 90.8225 18.7596 89.3351C18.1435 87.8477 17.9823 86.2111 18.2963 84.632C18.6104 83.053 19.3857 81.6026 20.5241 80.4642C21.6625 79.3258 23.1129 78.5506 24.6919 78.2365C26.2709 77.9224 27.9076 78.0836 29.395 78.6997C30.8824 79.3158 32.1537 80.3591 33.0481 81.6977C33.9425 83.0364 34.4199 84.6101 34.4199 86.2201C34.4147 88.3773 33.5554 90.4447 32.0299 91.9701C30.5045 93.4955 28.4372 94.3548 26.2799 94.3601V94.3601ZM26.2799 80.3601C25.124 80.3601 23.9941 80.7031 23.0333 81.3457C22.0725 81.9883 21.324 82.9016 20.8826 83.9699C20.4412 85.0381 20.3267 86.2134 20.5537 87.3468C20.7806 88.4802 21.3388 89.5207 22.1576 90.3367C22.9763 91.1526 24.0188 91.7072 25.1529 91.9303C26.2871 92.1534 27.4619 92.0349 28.5287 91.5898C29.5955 91.1447 30.5062 90.3931 31.1455 89.43C31.7848 88.467 32.1239 87.336 32.1199 86.1801C32.1094 84.64 31.4888 83.1669 30.3941 82.0835C29.2995 81.0001 27.8201 80.3948 26.2799 80.4001V80.3601Z" fill="#2271B7"/>
<path d="M68.12 42.9399H61.4L59.44 41.5599H41.66L34.82 34.6999H25.5V32.3999H35.76L42.62 39.2599H66.74L68.12 42.9399Z" fill="#2271B7"/>
<path d="M58 52.7598H32.54V55.0598H58V52.7598Z" fill="#2271B7"/>
<path d="M26.3601 72.8202H16.6201V70.5202H25.4201L32.7201 63.2202H56.5601V65.5202H33.6801L26.3601 72.8202Z" fill="#2271B7"/>
<path d="M37.86 86.92H32.68V84.62H36.9L45.96 75.54H61.78V77.84H46.92L37.86 86.92Z" fill="#2271B7"/>
<path d="M104.34 61.1001C104.335 66.7423 102.091 72.1518 98.1014 76.1415C94.1117 80.1311 88.7021 82.3748 83.06 82.3801H82.92V39.8201H83.06C88.7038 39.8201 94.1164 42.0621 98.1072 46.0528C102.098 50.0436 104.34 55.4563 104.34 61.1001V61.1001Z" fill="white"/>
<path d="M83.0601 70.3598C88.1743 70.3598 92.3201 66.214 92.3201 61.0998C92.3201 55.9857 88.1743 51.8398 83.0601 51.8398C77.9459 51.8398 73.8001 55.9857 73.8001 61.0998C73.8001 66.214 77.9459 70.3598 83.0601 70.3598Z" fill="#2271B7"/>
<path d="M154.96 77V56.035H146.7V53.655H165.705V56.035H157.48V77H154.96ZM183.765 77.35C180.872 77.35 178.62 76.4983 177.01 74.795C175.424 73.0917 174.63 70.6533 174.63 67.48V53.655H177.15V67.62C177.15 70.1167 177.71 71.9717 178.83 73.185C179.95 74.375 181.595 74.97 183.765 74.97C185.935 74.97 187.592 74.375 188.735 73.185C189.879 71.9717 190.45 70.1167 190.45 67.62V53.655H192.9V67.48C192.9 70.6533 192.095 73.0917 190.485 74.795C188.899 76.4983 186.659 77.35 183.765 77.35Z" fill="white"/>
<path d="M229.315 77.35C225.652 77.35 222.887 76.3583 221.02 74.375C219.153 72.3917 218.22 69.37 218.22 65.31C218.22 57.2833 221.918 53.27 229.315 53.27C230.552 53.27 231.777 53.4217 232.99 53.725C234.203 54.0283 235.393 54.4483 236.56 54.985V58.45C235.417 57.7733 234.273 57.2833 233.13 56.98C232.01 56.6533 230.902 56.49 229.805 56.49C227.238 56.49 225.325 57.1783 224.065 58.555C222.828 59.9317 222.21 62.195 222.21 65.345C222.21 68.4717 222.828 70.7117 224.065 72.065C225.325 73.4183 227.273 74.095 229.91 74.095C230.96 74.095 232.045 73.955 233.165 73.675C234.285 73.3717 235.417 72.8817 236.56 72.205V75.67C235.487 76.1833 234.32 76.5917 233.06 76.895C231.8 77.1983 230.552 77.35 229.315 77.35ZM256.37 77.385C252.893 77.385 250.21 76.3933 248.32 74.41C246.453 72.4033 245.52 69.3817 245.52 65.345C245.52 61.355 246.442 58.345 248.285 56.315C250.152 54.285 252.847 53.27 256.37 53.27C259.847 53.27 262.53 54.2733 264.42 56.28C266.31 58.2633 267.255 61.285 267.255 65.345C267.255 69.3117 266.322 72.31 264.455 74.34C262.612 76.37 259.917 77.385 256.37 77.385ZM256.37 74.06C258.703 74.06 260.43 73.3833 261.55 72.03C262.693 70.6533 263.265 68.4133 263.265 65.31C263.265 62.2533 262.693 60.0483 261.55 58.695C260.43 57.3183 258.703 56.63 256.37 56.63C254.037 56.63 252.298 57.3183 251.155 58.695C250.035 60.0483 249.475 62.265 249.475 65.345C249.475 68.425 250.035 70.6533 251.155 72.03C252.298 73.3833 254.037 74.06 256.37 74.06ZM277.11 77V53.655H280.82L293.21 70.805V53.655H296.885V77H293.42L280.785 59.675V77H277.11ZM313.183 77V56.91H305.658V53.655H324.593V56.91H317.033V77H313.183ZM333.376 77V53.655H343.736C346.163 53.655 348.03 54.25 349.336 55.44C350.643 56.6067 351.296 58.3683 351.296 60.725C351.296 62.3583 350.841 63.8167 349.931 65.1C349.045 66.36 347.796 67.165 346.186 67.515L352.416 77H347.621L342.161 68.18H337.226V77H333.376ZM337.226 65.03H342.651C345.708 65.03 347.236 63.665 347.236 60.935C347.236 59.675 346.933 58.695 346.326 57.995C345.72 57.2717 344.705 56.91 343.281 56.91H337.226V65.03ZM370.92 77.385C367.443 77.385 364.76 76.3933 362.87 74.41C361.003 72.4033 360.07 69.3817 360.07 65.345C360.07 61.355 360.992 58.345 362.835 56.315C364.702 54.285 367.397 53.27 370.92 53.27C374.397 53.27 377.08 54.2733 378.97 56.28C380.86 58.2633 381.805 61.285 381.805 65.345C381.805 69.3117 380.872 72.31 379.005 74.34C377.162 76.37 374.467 77.385 370.92 77.385ZM370.92 74.06C373.253 74.06 374.98 73.3833 376.1 72.03C377.243 70.6533 377.815 68.4133 377.815 65.31C377.815 62.2533 377.243 60.0483 376.1 58.695C374.98 57.3183 373.253 56.63 370.92 56.63C368.587 56.63 366.848 57.3183 365.705 58.695C364.585 60.0483 364.025 62.265 364.025 65.345C364.025 68.425 364.585 70.6533 365.705 72.03C366.848 73.3833 368.587 74.06 370.92 74.06ZM391.66 77V53.655H395.545V73.71H406.71V77H391.66Z" fill="#2271B7"/>
</svg>
